# xmcd
#
# Track frame offsets:
#	150
#	6977
#	23408
#	45035
#	63044
#	80669
#	96614
#	120405
#	136923
#	149859
#	173960
#
# Disc length: 2505 seconds
# Revision: 0
# Processed by: cddbd v1.5.2PL0 Copyright (c) Steve Scherf et al.
# Submitted via: dBpowerAMP V12.0
#
DISCID=8c09c70b
DTITLE=The Bean Pickers Union - Better the Devil
DYEAR=2012
DGENRE=Americana
TTITLE0=Proem
TTITLE1=Magnolia
TTITLE2=Burning Sky
TTITLE3=Down
TTITLE4=Numb
TTITLE5=Jolene
TTITLE6=Ditch
TTITLE7=Lydia's Lullaby
TTITLE8=Tranquility
TTITLE9=Sometimes I Just Sits
TTITLE10=Cameo
EXTD=
EXTT0=
EXTT1=
EXTT2=
EXTT3=
EXTT4=
EXTT5=
EXTT6=
EXTT7=
EXTT8=
EXTT9=
EXTT10=
PLAYORDER=
